<mxfile host="Electron" agent="Mozilla/5.0 (Windows NT 10.0; Win64; x64) AppleWebKit/537.36 (KHTML, like Gecko) draw.io/25.0.1 Chrome/128.0.6613.186 Electron/32.2.6 Safari/537.36" version="25.0.1">
  <diagram name="Sida-1" id="QiZR6kXSONbiLXy6iMTX">
    <mxGraphModel dx="827" dy="692" grid="1" gridSize="10" guides="1" tooltips="1" connect="1" arrows="1" fold="1" page="1" pageScale="1" pageWidth="827" pageHeight="1169" math="0" shadow="0">
      <root>
        <mxCell id="0" />
        <mxCell id="1" parent="0" />
        <mxCell id="ACxhvlcTr5dtjSwbOVu1-28" style="rounded=0;orthogonalLoop=1;jettySize=auto;html=1;exitX=0.5;exitY=1;exitDx=0;exitDy=0;entryX=0;entryY=0.25;entryDx=0;entryDy=0;" edge="1" parent="1" source="ACxhvlcTr5dtjSwbOVu1-1" target="ACxhvlcTr5dtjSwbOVu1-26">
          <mxGeometry relative="1" as="geometry" />
        </mxCell>
        <mxCell id="ACxhvlcTr5dtjSwbOVu1-30" style="rounded=0;orthogonalLoop=1;jettySize=auto;html=1;exitX=0.5;exitY=1;exitDx=0;exitDy=0;entryX=0;entryY=0.25;entryDx=0;entryDy=0;" edge="1" parent="1" source="ACxhvlcTr5dtjSwbOVu1-1" target="ACxhvlcTr5dtjSwbOVu1-27">
          <mxGeometry relative="1" as="geometry" />
        </mxCell>
        <mxCell id="ACxhvlcTr5dtjSwbOVu1-1" value="Xi" style="ellipse;whiteSpace=wrap;html=1;" vertex="1" parent="1">
          <mxGeometry x="530" y="120" width="40" height="40" as="geometry" />
        </mxCell>
        <mxCell id="ACxhvlcTr5dtjSwbOVu1-29" style="rounded=0;orthogonalLoop=1;jettySize=auto;html=1;exitX=0.5;exitY=1;exitDx=0;exitDy=0;entryX=0;entryY=0.75;entryDx=0;entryDy=0;" edge="1" parent="1" source="ACxhvlcTr5dtjSwbOVu1-2" target="ACxhvlcTr5dtjSwbOVu1-26">
          <mxGeometry relative="1" as="geometry" />
        </mxCell>
        <mxCell id="ACxhvlcTr5dtjSwbOVu1-31" style="rounded=0;orthogonalLoop=1;jettySize=auto;html=1;exitX=0.5;exitY=1;exitDx=0;exitDy=0;entryX=0;entryY=0.75;entryDx=0;entryDy=0;" edge="1" parent="1" source="ACxhvlcTr5dtjSwbOVu1-2" target="ACxhvlcTr5dtjSwbOVu1-27">
          <mxGeometry relative="1" as="geometry" />
        </mxCell>
        <mxCell id="ACxhvlcTr5dtjSwbOVu1-2" value="Yi" style="ellipse;whiteSpace=wrap;html=1;" vertex="1" parent="1">
          <mxGeometry x="430" y="120" width="40" height="40" as="geometry" />
        </mxCell>
        <mxCell id="ACxhvlcTr5dtjSwbOVu1-34" style="rounded=0;orthogonalLoop=1;jettySize=auto;html=1;exitX=0.5;exitY=1;exitDx=0;exitDy=0;entryX=0;entryY=0.75;entryDx=0;entryDy=0;" edge="1" parent="1" source="ACxhvlcTr5dtjSwbOVu1-3" target="ACxhvlcTr5dtjSwbOVu1-32">
          <mxGeometry relative="1" as="geometry" />
        </mxCell>
        <mxCell id="ACxhvlcTr5dtjSwbOVu1-38" style="rounded=0;orthogonalLoop=1;jettySize=auto;html=1;entryX=0;entryY=0.75;entryDx=0;entryDy=0;" edge="1" parent="1" source="ACxhvlcTr5dtjSwbOVu1-3" target="ACxhvlcTr5dtjSwbOVu1-37">
          <mxGeometry relative="1" as="geometry" />
        </mxCell>
        <mxCell id="ACxhvlcTr5dtjSwbOVu1-3" value="Ci-1" style="ellipse;whiteSpace=wrap;html=1;" vertex="1" parent="1">
          <mxGeometry x="290" y="120" width="40" height="40" as="geometry" />
        </mxCell>
        <mxCell id="ACxhvlcTr5dtjSwbOVu1-39" style="rounded=0;orthogonalLoop=1;jettySize=auto;html=1;exitX=1;exitY=0.5;exitDx=0;exitDy=0;entryX=0;entryY=0.25;entryDx=0;entryDy=0;" edge="1" parent="1" source="ACxhvlcTr5dtjSwbOVu1-27" target="ACxhvlcTr5dtjSwbOVu1-37">
          <mxGeometry relative="1" as="geometry" />
        </mxCell>
        <mxCell id="ACxhvlcTr5dtjSwbOVu1-42" style="rounded=0;orthogonalLoop=1;jettySize=auto;html=1;exitX=1;exitY=0.5;exitDx=0;exitDy=0;entryX=0;entryY=0.25;entryDx=0;entryDy=0;" edge="1" parent="1" source="ACxhvlcTr5dtjSwbOVu1-26" target="ACxhvlcTr5dtjSwbOVu1-40">
          <mxGeometry relative="1" as="geometry" />
        </mxCell>
        <mxCell id="ACxhvlcTr5dtjSwbOVu1-26" value="AND" style="triangle;whiteSpace=wrap;html=1;direction=south;" vertex="1" parent="1">
          <mxGeometry x="500" y="240" width="80" height="60" as="geometry" />
        </mxCell>
        <mxCell id="ACxhvlcTr5dtjSwbOVu1-27" value="XOR" style="triangle;whiteSpace=wrap;html=1;direction=south;" vertex="1" parent="1">
          <mxGeometry x="410" y="240" width="80" height="60" as="geometry" />
        </mxCell>
        <mxCell id="ACxhvlcTr5dtjSwbOVu1-35" style="edgeStyle=orthogonalEdgeStyle;rounded=0;orthogonalLoop=1;jettySize=auto;html=1;" edge="1" parent="1" source="ACxhvlcTr5dtjSwbOVu1-32">
          <mxGeometry relative="1" as="geometry">
            <mxPoint x="374" y="500" as="targetPoint" />
          </mxGeometry>
        </mxCell>
        <mxCell id="ACxhvlcTr5dtjSwbOVu1-32" value="XOR" style="triangle;whiteSpace=wrap;html=1;direction=south;" vertex="1" parent="1">
          <mxGeometry x="334" y="360" width="80" height="60" as="geometry" />
        </mxCell>
        <mxCell id="ACxhvlcTr5dtjSwbOVu1-33" style="rounded=0;orthogonalLoop=1;jettySize=auto;html=1;exitX=1;exitY=0.5;exitDx=0;exitDy=0;entryX=0.029;entryY=0.365;entryDx=0;entryDy=0;entryPerimeter=0;" edge="1" parent="1" source="ACxhvlcTr5dtjSwbOVu1-27" target="ACxhvlcTr5dtjSwbOVu1-32">
          <mxGeometry relative="1" as="geometry" />
        </mxCell>
        <mxCell id="ACxhvlcTr5dtjSwbOVu1-36" value="Zi" style="ellipse;whiteSpace=wrap;html=1;" vertex="1" parent="1">
          <mxGeometry x="354" y="500" width="40" height="40" as="geometry" />
        </mxCell>
        <mxCell id="ACxhvlcTr5dtjSwbOVu1-41" style="rounded=0;orthogonalLoop=1;jettySize=auto;html=1;exitX=1;exitY=0.5;exitDx=0;exitDy=0;entryX=0;entryY=0.75;entryDx=0;entryDy=0;" edge="1" parent="1" source="ACxhvlcTr5dtjSwbOVu1-37" target="ACxhvlcTr5dtjSwbOVu1-40">
          <mxGeometry relative="1" as="geometry" />
        </mxCell>
        <mxCell id="ACxhvlcTr5dtjSwbOVu1-37" value="AND" style="triangle;whiteSpace=wrap;html=1;direction=south;" vertex="1" parent="1">
          <mxGeometry x="440" y="360" width="80" height="60" as="geometry" />
        </mxCell>
        <mxCell id="ACxhvlcTr5dtjSwbOVu1-44" style="edgeStyle=orthogonalEdgeStyle;rounded=0;orthogonalLoop=1;jettySize=auto;html=1;exitX=1;exitY=0.5;exitDx=0;exitDy=0;entryX=0.5;entryY=0;entryDx=0;entryDy=0;" edge="1" parent="1" source="ACxhvlcTr5dtjSwbOVu1-40" target="ACxhvlcTr5dtjSwbOVu1-43">
          <mxGeometry relative="1" as="geometry" />
        </mxCell>
        <mxCell id="ACxhvlcTr5dtjSwbOVu1-40" value="OR" style="triangle;whiteSpace=wrap;html=1;direction=south;" vertex="1" parent="1">
          <mxGeometry x="500" y="460" width="80" height="60" as="geometry" />
        </mxCell>
        <mxCell id="ACxhvlcTr5dtjSwbOVu1-43" value="Ci" style="ellipse;whiteSpace=wrap;html=1;" vertex="1" parent="1">
          <mxGeometry x="520" y="570" width="40" height="40" as="geometry" />
        </mxCell>
      </root>
    </mxGraphModel>
  </diagram>
</mxfile>
